<?xml version="1.0" encoding="UTF-8" standalone="no"?>
<!-- Uploaded to: SVG Repo, www.svgrepo.com, Generator: SVG Repo Mixer Tools -->

<svg
   width="800px"
   height="800px"
   viewBox="0 0 24 24"
   version="1.1"
   id="svg1"
   sodipodi:docname="heading-h5.svg"
   inkscape:version="1.3 (0e150ed6c4, 2023-07-21)"
   xmlns:inkscape="http://www.inkscape.org/namespaces/inkscape"
   xmlns:sodipodi="http://sodipodi.sourceforge.net/DTD/sodipodi-0.dtd"
   xmlns="http://www.w3.org/2000/svg"
   xmlns:svg="http://www.w3.org/2000/svg">
  <defs
     id="defs1" />
  <sodipodi:namedview
     id="namedview1"
     pagecolor="#ffffff"
     bordercolor="#000000"
     borderopacity="0.25"
     inkscape:showpageshadow="2"
     inkscape:pageopacity="0.0"
     inkscape:pagecheckerboard="0"
     inkscape:deskcolor="#d1d1d1"
     inkscape:zoom="1.01625"
     inkscape:cx="400"
     inkscape:cy="400"
     inkscape:window-width="1920"
     inkscape:window-height="1009"
     inkscape:window-x="-8"
     inkscape:window-y="-8"
     inkscape:window-maximized="1"
     inkscape:current-layer="svg1" />
  <g
     id="g1">
    <path
       d="M14.09 14.19c.352.27.73.5 1.13.69.42.196.877.296 1.34.29.51.014 1.01-.125 1.44-.4.378-.253.594-.686.57-1.14.02-.45-.197-.877-.57-1.13-.406-.274-.89-.41-1.38-.39h-.47c-.135.014-.27.04-.4.08l-.41.15-.48.23-1.02-.57.28-5h6.4v1.92h-4.31L16 10.76c.222-.077.45-.138.68-.18.235-.037.472-.054.71-.05.463-.004.924.057 1.37.18.41.115.798.305 1.14.56.33.248.597.57.78.94.212.422.322.888.32 1.36.007.497-.11.99-.34 1.43-.224.417-.534.782-.91 1.07-.393.3-.837.527-1.31.67-.497.164-1.016.252-1.54.26-.788.023-1.573-.11-2.31-.39-.584-.238-1.122-.577-1.59-1l1.09-1.42zM11 17H9v-4H5v4H3V7h2v4h4V7h2v10z"
       id="path1" />
  </g>
</svg>
